# File created by Blade
# Date/Time:  Thu Sep 25 15:55:53 2014
# Frame Rate: 120.000 fps
#------------------------------------------------------
:FULLY-SPECIFIED
:DEGREES
974
root -1.855643 32.866150 2.102226 10.859130 -0.907310 -2.432394
Spine -11.794705 6.001162 1.472114
Head -9.271325 -10.340298 12.974393
LeftShoulder -15.522952 24.097733 24.381539
LeftArm 18.297600 -24.023843 -31.234416
LeftForeArm 8.146954 -0.000000 14.951515
LeftHand -28.100013 -0.000000 0.559572
LeftHandThumb1 -26.253704 0.000000 33.147579
RightShoulder -20.999811 9.219265 -36.665633
RightArm -9.633536 7.128908 30.631634
RightForeArm -32.681057 -0.000000 21.821471
RightHand -12.079014 0.000000 2.736087
RightHandThumb1 -24.326973 -0.000000 -32.862282
LeftUpLeg -6.198359 13.447066 -2.343131
LeftLeg 0.143570 -0.000000 -0.000000
LeftFoot -7.646103 -5.871221 -19.860102
LeftToeBase 4.798111 -0.000000 -0.000000
RightUpLeg -7.077364 -2.971975 2.854585
RightLeg 2.858848 -0.000000 -0.000000
RightFoot -9.108395 0.798430 -3.463450
RightToeBase -3.749382 -0.000000 0.000000
975
root -1.860675 32.865427 2.099185 10.822611 -0.871958 -2.436735
Spine -11.720776 5.964096 1.515428
Head -9.298344 -10.212846 12.899643
LeftShoulder -15.526586 24.278186 24.131766
LeftArm 18.326382 -24.058390 -31.939182
LeftForeArm 7.521517 -0.000000 15.264772
LeftHand -28.136063 0.000000 1.707534
LeftHandThumb1 -26.253704 0.000000 33.147579
RightShoulder -20.971485 8.974858 -36.337952
RightArm -9.673442 7.024946 30.950691
RightForeArm -32.706872 -0.000000 22.079888
RightHand -11.871641 -0.000000 2.536471
RightHandThumb1 -24.326973 -0.000000 -32.862282
LeftUpLeg -6.190545 13.514025 -2.323872
LeftLeg 0.183823 -0.000000 -0.000000
LeftFoot -7.621397 -5.996406 -19.884041
LeftToeBase 4.777084 -0.000000 -0.000000
RightUpLeg -7.037102 -3.050230 2.879031
RightLeg 2.840656 -0.000000 -0.000000
RightFoot -9.104005 0.812320 -3.517008
RightToeBase -3.805676 -0.000000 0.000000
976
root -1.859371 32.867644 2.084257 10.876242 -0.851928 -2.415773
Spine -11.722467 5.940323 1.551934
Head -9.355883 -10.069149 12.772224
LeftShoulder -15.491332 24.499002 23.866175
LeftArm 18.240863 -24.004532 -32.669231
LeftForeArm 6.866179 -0.000000 15.746008
LeftHand -28.053188 -0.000000 2.669463
LeftHandThumb1 -26.253704 0.000000 33.147579
RightShoulder -20.939416 8.759095 -36.073600
RightArm -9.778061 6.752338 31.362017
RightForeArm -32.573283 0.000000 22.380096
RightHand -12.018944 -0.000000 1.883775
RightHandThumb1 -24.326973 -0.000000 -32.862282
LeftUpLeg -6.250373 13.296401 -2.341808
LeftLeg 0.145012 -0.000000 -0.000000
LeftFoot -7.638786 -5.790929 -19.935758
LeftToeBase 4.802931 -0.000000 -0.000000
RightUpLeg -7.132901 -3.059320 2.862656
RightLeg 2.872671 -0.000000 -0.000000
RightFoot -9.095081 0.818632 -3.481464
RightToeBase -3.769268 -0.000000 0.000000
977
root -1.863355 32.867466 2.073014 10.891697 -0.845580 -2.430238
Spine -11.671164 5.930322 1.630428
Head -9.441825 -9.921229 12.629310
LeftShoulder -15.521438 24.774214 23.558690
LeftArm 18.348120 -24.159436 -33.558198
LeftForeArm 6.274931 -0.000000 16.144389
LeftHand -28.197246 -0.000000 3.552502
LeftHandThumb1 -26.253704 0.000000 33.147579
RightShoulder -20.884395 8.550935 -35.832378
RightArm -9.920323 6.596524 31.818422
RightForeArm -32.478895 -0.000000 22.635061
RightHand -11.830294 -0.000000 1.564982
RightHandThumb1 -24.326973 -0.000000 -32.862282
LeftUpLeg -6.261296 13.154116 -2.315310
LeftLeg 0.100725 -0.000000 -0.000000
LeftFoot -7.675315 -5.630168 -19.948793
LeftToeBase 4.808042 -0.000000 -0.000000
RightUpLeg -7.175625 -3.049081 2.886251
RightLeg 2.891177 -0.000000 -0.000000
RightFoot -9.097096 0.803700 -3.484366
RightToeBase -3.757895 -0.000000 0.000000
978
root -1.862497 32.869117 2.059587 10.936060 -0.839498 -2.397317
Spine -11.653904 5.911630 1.643333
Head -9.534211 -9.785176 12.538800
LeftShoulder -15.581926 25.069317 23.172320
LeftArm 18.499218 -24.096195 -34.299281
LeftForeArm 5.606106 -0.000000 16.378297
LeftHand -28.212262 -0.000000 4.474022
LeftHandThumb1 -26.253704 0.000000 33.147579
RightShoulder -20.857539 8.275206 -35.491645
RightArm -9.996308 6.235565 32.276690
RightForeArm -32.232686 0.000000 22.887011
RightHand -11.465540 -0.000000 1.049681
RightHandThumb1 -24.326973 -0.000000 -32.862282
LeftUpLeg -6.365735 13.159587 -2.362363
LeftLeg 0.170040 -0.000000 -0.000000
LeftFoot -7.665133 -5.658429 -19.973826
LeftToeBase 4.818275 -0.000000 -0.000000
RightUpLeg -7.263531 -3.067186 2.859030
RightLeg 2.931418 -0.000000 -0.000000
RightFoot -9.102998 0.808514 -3.505138
RightToeBase -3.754242 -0.000000 0.000000
979
root -1.865219 32.868849 2.048216 10.961740 -0.829028 -2.396160
Spine -11.624324 5.901446 1.694992
Head -9.614308 -9.692416 12.391043
LeftShoulder -15.621765 25.336706 22.826802
LeftArm 18.675360 -24.232003 -35.232678
LeftForeArm 5.042356 -0.000000 16.665056
LeftHand -28.092687 -0.000000 5.051685
LeftHandThumb1 -26.253704 0.000000 33.147579
RightShoulder -20.813923 8.055173 -35.220988
RightArm -10.124632 5.809475 32.833849
RightForeArm -31.821303 0.000000 23.201073
RightHand -11.719274 -0.000000 0.672336
RightHandThumb1 -24.326973 -0.000000 -32.862282
LeftUpLeg -6.395728 13.051588 -2.357873
LeftLeg 0.141176 -0.000000 -0.000000
LeftFoot -7.682721 -5.569701 -20.028381
LeftToeBase 4.893409 -0.000000 -0.000000
RightUpLeg -7.314270 -3.062093 2.870168
RightLeg 2.942878 -0.000000 -0.000000
RightFoot -9.112686 0.768992 -3.500157
RightToeBase -3.709390 -0.000000 0.000000
